<svg xmlns="http://www.w3.org/2000/svg" xmlns:xlink="http://www.w3.org/1999/xlink" width="500" zoomAndPan="magnify" viewBox="0 0 375 374.999991" height="500" preserveAspectRatio="xMidYMid meet" version="1.0"><defs><clipPath id="a1f1ff8194"><path d="M 52.097656 12.78125 L 370.097656 12.78125 L 370.097656 330.78125 L 52.097656 330.78125 Z M 52.097656 12.78125 " clip-rule="nonzero"/></clipPath><clipPath id="fefdeeb503"><path d="M 211.214844 12.78125 C 123.339844 12.78125 52.097656 84.019531 52.097656 171.898438 C 52.097656 259.777344 123.339844 331.015625 211.214844 331.015625 C 299.09375 331.015625 370.332031 259.777344 370.332031 171.898438 C 370.332031 84.019531 299.09375 12.78125 211.214844 12.78125 Z M 211.214844 12.78125 " clip-rule="nonzero"/></clipPath><clipPath id="5a4ebec420"><path d="M 92.546875 104.089844 L 211.214844 104.089844 L 211.214844 239.910156 L 92.546875 239.910156 Z M 92.546875 104.089844 " clip-rule="nonzero"/></clipPath><clipPath id="9093f07c3b"><path d="M 211.214844 171.898438 L 92.546875 239.710938 L 92.546875 104.089844 Z M 211.214844 171.898438 " clip-rule="nonzero"/></clipPath><clipPath id="1230099fc6"><path d="M 0.546875 0.0898438 L 119.214844 0.0898438 L 119.214844 135.761719 L 0.546875 135.761719 Z M 0.546875 0.0898438 " clip-rule="nonzero"/></clipPath><clipPath id="101d5ff124"><path d="M 119.214844 67.898438 L 0.546875 135.710938 L 0.546875 0.0898438 Z M 119.214844 67.898438 " clip-rule="nonzero"/></clipPath><clipPath id="2473413541"><rect x="0" width="120" y="0" height="136"/></clipPath><clipPath id="e0a29c4608"><path d="M 2.972656 137.183594 L 141.84375 137.183594 L 141.84375 206.617188 L 2.972656 206.617188 Z M 2.972656 137.183594 " clip-rule="nonzero"/></clipPath><clipPath id="645a37d628"><path d="M 0.972656 0.183594 L 139.84375 0.183594 L 139.84375 69.617188 L 0.972656 69.617188 Z M 0.972656 0.183594 " clip-rule="nonzero"/></clipPath><clipPath id="87218d3ae7"><rect x="0" width="140" y="0" height="70"/></clipPath></defs><g clip-path="url(#a1f1ff8194)"><g clip-path="url(#fefdeeb503)"><path stroke-linecap="butt" transform="matrix(0.75, 0, 0, 0.75, 52.099124, 12.780489)" fill="none" stroke-linejoin="miter" d="M 212.154293 0.00101467 C 94.987626 0.00101467 -0.00195737 94.98539 -0.00195737 212.157265 C -0.00195737 329.32914 94.987626 424.313515 212.154293 424.313515 C 329.326168 424.313515 424.310543 329.32914 424.310543 212.157265 C 424.310543 94.98539 329.326168 0.00101467 212.154293 0.00101467 Z M 212.154293 0.00101467 " stroke="#1113d4" stroke-width="158" stroke-opacity="1" stroke-miterlimit="4"/></g></g><g clip-path="url(#5a4ebec420)"><g clip-path="url(#9093f07c3b)"><g transform="matrix(1, 0, 0, 1, 92, 104)"><g clip-path="url(#2473413541)"><g clip-path="url(#1230099fc6)"><g clip-path="url(#101d5ff124)"><path fill="#1113d4" d="M 119.214844 0.0898438 L 119.214844 135.910156 L 0.546875 135.910156 L 0.546875 0.0898438 Z M 119.214844 0.0898438 " fill-opacity="1" fill-rule="nonzero"/></g></g></g></g></g></g><g clip-path="url(#e0a29c4608)"><g transform="matrix(1, 0, 0, 1, 2, 137)"><g clip-path="url(#87218d3ae7)"><g clip-path="url(#645a37d628)"><path fill="#1113d4" d="M 0.972656 0.183594 L 139.84375 0.183594 L 139.84375 69.617188 L 0.972656 69.617188 Z M 0.972656 0.183594 " fill-opacity="1" fill-rule="nonzero"/></g></g></g></g></svg>