<svg xmlns="http://www.w3.org/2000/svg" xmlns:xlink="http://www.w3.org/1999/xlink" width="500" zoomAndPan="magnify" viewBox="0 0 375 374.999991" height="500" preserveAspectRatio="xMidYMid meet" version="1.0"><defs><g/><clipPath id="b8d0f7662b"><path d="M 78 166.875 L 119.25 166.875 L 119.25 208.125 L 78 208.125 Z M 78 166.875 " clip-rule="nonzero"/></clipPath><clipPath id="81fc7ecbb5"><path d="M 98.625 166.875 C 87.234375 166.875 78 176.109375 78 187.5 C 78 198.890625 87.234375 208.125 98.625 208.125 C 110.015625 208.125 119.25 198.890625 119.25 187.5 C 119.25 176.109375 110.015625 166.875 98.625 166.875 Z M 98.625 166.875 " clip-rule="nonzero"/></clipPath><clipPath id="966f8335a5"><path d="M 83.238281 178.707031 L 98.621094 178.707031 L 98.621094 196.3125 L 83.238281 196.3125 Z M 83.238281 178.707031 " clip-rule="nonzero"/></clipPath><clipPath id="362b3437f0"><path d="M 98.621094 187.496094 L 83.238281 196.285156 L 83.238281 178.707031 Z M 98.621094 187.496094 " clip-rule="nonzero"/></clipPath><clipPath id="35fa6db9ca"><path d="M 0.238281 0.707031 L 15.621094 0.707031 L 15.621094 18.3125 L 0.238281 18.3125 Z M 0.238281 0.707031 " clip-rule="nonzero"/></clipPath><clipPath id="997ce33183"><path d="M 15.621094 9.496094 L 0.238281 18.285156 L 0.238281 0.707031 Z M 15.621094 9.496094 " clip-rule="nonzero"/></clipPath><clipPath id="15cc822b74"><rect x="0" width="16" y="0" height="19"/></clipPath><clipPath id="bfbc82afa8"><path d="M 71.632812 183 L 89.632812 183 L 89.632812 192 L 71.632812 192 Z M 71.632812 183 " clip-rule="nonzero"/></clipPath><clipPath id="84bee31479"><path d="M 0.632812 0 L 18.632812 0 L 18.632812 9 L 0.632812 9 Z M 0.632812 0 " clip-rule="nonzero"/></clipPath><clipPath id="cc345fc353"><rect x="0" width="19" y="0" height="9"/></clipPath></defs><g clip-path="url(#b8d0f7662b)"><g clip-path="url(#81fc7ecbb5)"><path stroke-linecap="butt" transform="matrix(0.75, 0, 0, 0.75, 77.999999, 166.874989)" fill="none" stroke-linejoin="miter" d="M 27.500003 0.0000146108 C 12.312502 0.0000146108 0.000000829333 12.312515 0.000000829333 27.500016 C 0.000000829333 42.687517 12.312502 55.000018 27.500003 55.000018 C 42.687504 55.000018 55.000004 42.687517 55.000004 27.500016 C 55.000004 12.312515 42.687504 0.0000146108 27.500003 0.0000146108 Z M 27.500003 0.0000146108 " stroke="#1113d4" stroke-width="22" stroke-opacity="1" stroke-miterlimit="4"/></g></g><g clip-path="url(#966f8335a5)"><g clip-path="url(#362b3437f0)"><g transform="matrix(1, 0, 0, 1, 83, 178)"><g clip-path="url(#15cc822b74)"><g clip-path="url(#35fa6db9ca)"><g clip-path="url(#997ce33183)"><path fill="#1113d4" d="M 15.621094 0.707031 L 15.621094 18.3125 L 0.238281 18.3125 L 0.238281 0.707031 Z M 15.621094 0.707031 " fill-opacity="1" fill-rule="nonzero"/></g></g></g></g></g></g><g clip-path="url(#bfbc82afa8)"><g transform="matrix(1, 0, 0, 1, 71, 183)"><g clip-path="url(#cc345fc353)"><g clip-path="url(#84bee31479)"><path fill="#1113d4" d="M 0.632812 0 L 18.632812 0 L 18.632812 9 L 0.632812 9 Z M 0.632812 0 " fill-opacity="1" fill-rule="nonzero"/></g></g></g></g><g fill="#1113d4" fill-opacity="1"><g transform="translate(128.971388, 204.749987)"><g><path d="M 11.484375 -34.53125 L 11.484375 -7.609375 C 11.484375 -6.367188 11.75 -5.484375 12.28125 -4.953125 C 12.8125 -4.421875 13.71875 -4.15625 15 -4.15625 L 18.9375 -4.15625 L 19.53125 -0.28125 C 18.914062 -0.09375 18.210938 0.0507812 17.421875 0.15625 C 16.640625 0.269531 15.859375 0.351562 15.078125 0.40625 C 14.296875 0.46875 13.664062 0.5 13.1875 0.5 C 10.925781 0.5 9.191406 -0.117188 7.984375 -1.359375 C 6.785156 -2.609375 6.1875 -4.398438 6.1875 -6.734375 L 6.1875 -34.53125 Z M 19.8125 -26.703125 L 19.8125 -22.765625 L 1.375 -22.765625 L 1.375 -26.421875 L 6.625 -26.703125 Z M 19.8125 -26.703125 "/></g></g></g><g fill="#1113d4" fill-opacity="1"><g transform="translate(150.086789, 204.749987)"><g><path d="M 8.203125 -26.703125 L 8.859375 -21.5625 L 9.359375 -20.796875 L 9.359375 0 L 4.109375 0 L 4.109375 -26.703125 Z M 21.28125 -27.359375 L 20.734375 -22.4375 L 19.046875 -22.4375 C 17.546875 -22.4375 16.019531 -22.144531 14.46875 -21.5625 C 12.914062 -20.976562 11.03125 -20.140625 8.8125 -19.046875 L 8.421875 -22.265625 C 10.359375 -23.867188 12.320312 -25.117188 14.3125 -26.015625 C 16.300781 -26.910156 18.222656 -27.359375 20.078125 -27.359375 Z M 21.28125 -27.359375 "/></g></g></g><g fill="#1113d4" fill-opacity="1"><g transform="translate(172.241542, 204.749987)"><g><path d="M 16.96875 -27.359375 C 19.007812 -27.359375 20.726562 -27.09375 22.125 -26.5625 C 23.53125 -26.03125 24.585938 -25.125 25.296875 -23.84375 C 26.015625 -22.570312 26.375 -20.828125 26.375 -18.609375 L 26.375 0 L 22.21875 0 L 21.390625 -5.796875 L 21.0625 -6.453125 L 21.0625 -18.609375 C 21.0625 -20.171875 20.695312 -21.296875 19.96875 -21.984375 C 19.238281 -22.679688 17.851562 -23.03125 15.8125 -23.03125 C 14.425781 -23.03125 12.679688 -22.957031 10.578125 -22.8125 C 8.484375 -22.664062 6.414062 -22.519531 4.375 -22.375 L 3.890625 -26.15625 C 5.128906 -26.375 6.503906 -26.570312 8.015625 -26.75 C 9.523438 -26.9375 11.066406 -27.082031 12.640625 -27.1875 C 14.210938 -27.300781 15.65625 -27.359375 16.96875 -27.359375 Z M 23.96875 -16.46875 L 23.90625 -12.75 L 11.328125 -12.6875 C 10.085938 -12.65625 9.21875 -12.335938 8.71875 -11.734375 C 8.226562 -11.128906 7.984375 -10.300781 7.984375 -9.25 L 7.984375 -7.609375 C 7.984375 -6.296875 8.300781 -5.335938 8.9375 -4.734375 C 9.582031 -4.128906 10.597656 -3.828125 11.984375 -3.828125 C 13.003906 -3.828125 14.144531 -4.019531 15.40625 -4.40625 C 16.664062 -4.789062 17.929688 -5.375 19.203125 -6.15625 C 20.484375 -6.9375 21.632812 -7.929688 22.65625 -9.140625 L 22.65625 -5.6875 C 22.289062 -5.175781 21.742188 -4.566406 21.015625 -3.859375 C 20.285156 -3.148438 19.398438 -2.46875 18.359375 -1.8125 C 17.316406 -1.15625 16.164062 -0.601562 14.90625 -0.15625 C 13.644531 0.28125 12.269531 0.5 10.78125 0.5 C 9.175781 0.5 7.757812 0.21875 6.53125 -0.34375 C 5.3125 -0.914062 4.351562 -1.757812 3.65625 -2.875 C 2.96875 -3.988281 2.625 -5.347656 2.625 -6.953125 L 2.625 -9.84375 C 2.625 -11.925781 3.289062 -13.550781 4.625 -14.71875 C 5.957031 -15.882812 7.804688 -16.46875 10.171875 -16.46875 Z M 23.96875 -16.46875 "/></g></g></g><g fill="#1113d4" fill-opacity="1"><g transform="translate(202.492361, 204.749987)"><g><path d="M 15.703125 -27.359375 C 16.546875 -27.359375 17.46875 -27.320312 18.46875 -27.25 C 19.46875 -27.175781 20.503906 -27.046875 21.578125 -26.859375 C 22.660156 -26.679688 23.65625 -26.410156 24.5625 -26.046875 L 23.90625 -22.65625 C 22.632812 -22.757812 21.332031 -22.835938 20 -22.890625 C 18.664062 -22.953125 17.523438 -22.984375 16.578125 -22.984375 C 14.535156 -22.984375 12.921875 -22.695312 11.734375 -22.125 C 10.546875 -21.5625 9.695312 -20.585938 9.1875 -19.203125 C 8.675781 -17.816406 8.421875 -15.882812 8.421875 -13.40625 C 8.421875 -10.925781 8.675781 -8.972656 9.1875 -7.546875 C 9.695312 -6.128906 10.546875 -5.144531 11.734375 -4.59375 C 12.921875 -4.050781 14.535156 -3.78125 16.578125 -3.78125 C 17.128906 -3.78125 17.84375 -3.796875 18.71875 -3.828125 C 19.59375 -3.867188 20.539062 -3.925781 21.5625 -4 C 22.582031 -4.070312 23.566406 -4.179688 24.515625 -4.328125 L 25 -0.828125 C 23.65625 -0.316406 22.160156 0.0546875 20.515625 0.296875 C 18.878906 0.535156 17.257812 0.65625 15.65625 0.65625 C 12.507812 0.65625 10 0.203125 8.125 -0.703125 C 6.25 -1.617188 4.890625 -3.097656 4.046875 -5.140625 C 3.210938 -7.179688 2.796875 -9.9375 2.796875 -13.40625 C 2.796875 -16.832031 3.222656 -19.566406 4.078125 -21.609375 C 4.929688 -23.648438 6.296875 -25.117188 8.171875 -26.015625 C 10.054688 -26.910156 12.566406 -27.359375 15.703125 -27.359375 Z M 15.703125 -27.359375 "/></g></g></g><g fill="#1113d4" fill-opacity="1"><g transform="translate(229.460991, 204.749987)"><g><path d="M 26.703125 -26.703125 L 18.546875 -17.015625 C 18.296875 -16.648438 17.96875 -16.273438 17.5625 -15.890625 C 17.164062 -15.515625 16.835938 -15.234375 16.578125 -15.046875 L 16.578125 -14.9375 C 16.835938 -14.757812 17.164062 -14.441406 17.5625 -13.984375 C 17.96875 -13.523438 18.296875 -13.078125 18.546875 -12.640625 L 27.578125 0 L 21.453125 0 L 11.15625 -15.265625 L 20.578125 -26.703125 Z M 9.359375 -38.296875 L 9.40625 -21.5 C 9.40625 -20.332031 9.359375 -19.25 9.265625 -18.25 C 9.179688 -17.25 9.03125 -16.203125 8.8125 -15.109375 C 9.03125 -14.078125 9.175781 -13.03125 9.25 -11.96875 C 9.320312 -10.914062 9.359375 -9.914062 9.359375 -8.96875 L 9.359375 0 L 4.109375 0 L 4.109375 -38.296875 Z M 13.796875 -16.90625 L 13.796875 -13.1875 L 7.546875 -13.1875 L 7.546875 -16.90625 Z M 13.796875 -16.90625 "/></g></g></g><g fill="#1113d4" fill-opacity="1"><g transform="translate(257.797201, 204.749987)"><g><path d="M 9.515625 -26.703125 L 9.515625 0 L 4.328125 0 L 4.328125 -26.703125 Z M 8.15625 -38.140625 C 9.207031 -38.140625 9.734375 -37.609375 9.734375 -36.546875 L 9.734375 -33.4375 C 9.734375 -32.375 9.207031 -31.84375 8.15625 -31.84375 L 5.6875 -31.84375 C 4.632812 -31.84375 4.109375 -32.375 4.109375 -33.4375 L 4.109375 -36.546875 C 4.109375 -37.609375 4.632812 -38.140625 5.6875 -38.140625 Z M 8.15625 -38.140625 "/></g></g></g><g fill="#1113d4" fill-opacity="1"><g transform="translate(271.63709, 204.749987)"><g><path d="M 15.65625 -27.359375 C 18.789062 -27.359375 21.296875 -26.898438 23.171875 -25.984375 C 25.046875 -25.078125 26.394531 -23.59375 27.21875 -21.53125 C 28.039062 -19.46875 28.453125 -16.738281 28.453125 -13.34375 C 28.453125 -9.914062 28.039062 -7.171875 27.21875 -5.109375 C 26.394531 -3.054688 25.046875 -1.570312 23.171875 -0.65625 C 21.296875 0.257812 18.789062 0.71875 15.65625 0.71875 C 12.550781 0.71875 10.054688 0.257812 8.171875 -0.65625 C 6.296875 -1.570312 4.9375 -3.054688 4.09375 -5.109375 C 3.257812 -7.171875 2.84375 -9.914062 2.84375 -13.34375 C 2.84375 -16.738281 3.257812 -19.46875 4.09375 -21.53125 C 4.9375 -23.59375 6.296875 -25.078125 8.171875 -25.984375 C 10.054688 -26.898438 12.550781 -27.359375 15.65625 -27.359375 Z M 15.65625 -23.09375 C 13.820312 -23.09375 12.375 -22.800781 11.3125 -22.21875 C 10.257812 -21.632812 9.515625 -20.640625 9.078125 -19.234375 C 8.640625 -17.828125 8.421875 -15.863281 8.421875 -13.34375 C 8.421875 -10.832031 8.640625 -8.863281 9.078125 -7.4375 C 9.515625 -6.019531 10.257812 -5.023438 11.3125 -4.453125 C 12.375 -3.890625 13.820312 -3.609375 15.65625 -3.609375 C 17.476562 -3.609375 18.925781 -3.890625 20 -4.453125 C 21.070312 -5.023438 21.828125 -6.019531 22.265625 -7.4375 C 22.703125 -8.863281 22.921875 -10.832031 22.921875 -13.34375 C 22.921875 -15.863281 22.703125 -17.828125 22.265625 -19.234375 C 21.828125 -20.640625 21.070312 -21.632812 20 -22.21875 C 18.925781 -22.800781 17.476562 -23.09375 15.65625 -23.09375 Z M 15.65625 -23.09375 "/></g></g></g></svg>