<svg xmlns="http://www.w3.org/2000/svg" xmlns:xlink="http://www.w3.org/1999/xlink" width="500" zoomAndPan="magnify" viewBox="0 0 375 74.999997" height="100" preserveAspectRatio="xMidYMid meet" version="1.0"><defs><g/><clipPath id="10e0cc004f"><path d="M 0 9.792969 L 18.695312 9.792969 L 18.695312 45.851562 L 0 45.851562 Z M 0 9.792969 " clip-rule="nonzero"/></clipPath><clipPath id="30b5ff98ac"><path d="M 18.695312 27.8125 L -3.707031 45.832031 L -3.707031 9.792969 Z M 18.695312 27.8125 " clip-rule="nonzero"/></clipPath><clipPath id="4083eb78a0"><path d="M 0 0.792969 L 18.695312 0.792969 L 18.695312 36.839844 L 0 36.839844 Z M 0 0.792969 " clip-rule="nonzero"/></clipPath><clipPath id="9d06b5c9db"><path d="M 18.695312 18.8125 L -3.707031 36.832031 L -3.707031 0.792969 Z M 18.695312 18.8125 " clip-rule="nonzero"/></clipPath><clipPath id="6cb65a6f28"><rect x="0" width="19" y="0" height="37"/></clipPath><clipPath id="1370bd5302"><path d="M 19.175781 0 L 38.105469 0 L 38.105469 27.820312 L 19.175781 27.820312 Z M 19.175781 0 " clip-rule="nonzero"/></clipPath><clipPath id="bce5c71690"><path d="M 38.105469 12.105469 L 19.175781 27.816406 L 19.175781 -3.605469 Z M 38.105469 12.105469 " clip-rule="nonzero"/></clipPath><clipPath id="2c26e5db1e"><path d="M 0.175781 0 L 19.105469 0 L 19.105469 27.820312 L 0.175781 27.820312 Z M 0.175781 0 " clip-rule="nonzero"/></clipPath><clipPath id="f919f431f6"><path d="M 19.105469 12.105469 L 0.175781 27.816406 L 0.175781 -3.605469 Z M 19.105469 12.105469 " clip-rule="nonzero"/></clipPath><clipPath id="727a061bb2"><rect x="0" width="20" y="0" height="28"/></clipPath></defs><g fill="#ffffff" fill-opacity="1"><g transform="translate(45.704128, 53.827258)"><g><path d="M 11.375 -31.1875 L 11.375 -7.3125 C 11.375 -6.320312 11.59375 -5.601562 12.03125 -5.15625 C 12.476562 -4.71875 13.25 -4.5 14.34375 -4.5 L 17.703125 -4.5 L 18.34375 -0.296875 C 17.78125 -0.128906 17.101562 0.015625 16.3125 0.140625 C 15.519531 0.273438 14.742188 0.367188 13.984375 0.421875 C 13.234375 0.472656 12.59375 0.5 12.0625 0.5 C 9.957031 0.5 8.316406 -0.0664062 7.140625 -1.203125 C 5.972656 -2.347656 5.390625 -3.988281 5.390625 -6.125 L 5.390625 -31.1875 Z M 18.59375 -24.28125 L 18.59375 -20.125 L 1.09375 -20.125 L 1.09375 -24.03125 L 5.828125 -24.28125 Z M 18.59375 -24.28125 "/></g></g></g><g fill="#ffffff" fill-opacity="1"><g transform="translate(65.327723, 53.827258)"><g><path d="M 8.015625 -24.28125 L 8.796875 -19.53125 L 9.34375 -18.828125 L 9.34375 0 L 3.359375 0 L 3.359375 -24.28125 Z M 19.875 -24.859375 L 19.28125 -19.328125 L 17.546875 -19.328125 C 16.265625 -19.328125 14.960938 -19.113281 13.640625 -18.6875 C 12.328125 -18.257812 10.679688 -17.617188 8.703125 -16.765625 L 8.3125 -20.265625 C 10.019531 -21.710938 11.765625 -22.835938 13.546875 -23.640625 C 15.328125 -24.453125 17.039062 -24.859375 18.6875 -24.859375 Z M 19.875 -24.859375 "/></g></g></g><g fill="#ffffff" fill-opacity="1"><g transform="translate(85.791623, 53.827258)"><g><path d="M 15.578125 -24.859375 C 17.515625 -24.859375 19.160156 -24.601562 20.515625 -24.09375 C 21.867188 -23.582031 22.882812 -22.71875 23.5625 -21.5 C 24.238281 -20.28125 24.578125 -18.601562 24.578125 -16.46875 L 24.578125 0 L 19.828125 0 L 18.984375 -5.234375 L 18.546875 -5.9375 L 18.546875 -16.515625 C 18.546875 -17.796875 18.25 -18.722656 17.65625 -19.296875 C 17.0625 -19.878906 15.921875 -20.171875 14.234375 -20.171875 C 12.984375 -20.171875 11.410156 -20.117188 9.515625 -20.015625 C 7.617188 -19.921875 5.71875 -19.789062 3.8125 -19.625 L 3.265625 -23.734375 C 4.421875 -23.960938 5.722656 -24.160156 7.171875 -24.328125 C 8.617188 -24.492188 10.082031 -24.625 11.5625 -24.71875 C 13.050781 -24.8125 14.390625 -24.859375 15.578125 -24.859375 Z M 22 -14.9375 L 21.953125 -11.21875 L 10.828125 -11.21875 C 9.835938 -11.1875 9.128906 -10.921875 8.703125 -10.421875 C 8.273438 -9.929688 8.0625 -9.257812 8.0625 -8.40625 L 8.0625 -7.0625 C 8.0625 -6.082031 8.320312 -5.34375 8.84375 -4.84375 C 9.375 -4.351562 10.203125 -4.109375 11.328125 -4.109375 C 12.210938 -4.109375 13.195312 -4.28125 14.28125 -4.625 C 15.375 -4.96875 16.453125 -5.484375 17.515625 -6.171875 C 18.585938 -6.867188 19.554688 -7.695312 20.421875 -8.65625 L 20.421875 -5.53125 C 20.085938 -5.039062 19.609375 -4.457031 18.984375 -3.78125 C 18.359375 -3.101562 17.59375 -2.4375 16.6875 -1.78125 C 15.78125 -1.125 14.738281 -0.578125 13.5625 -0.140625 C 12.394531 0.285156 11.101562 0.5 9.6875 0.5 C 8.238281 0.5 6.9375 0.242188 5.78125 -0.265625 C 4.625 -0.773438 3.71875 -1.53125 3.0625 -2.53125 C 2.40625 -3.539062 2.078125 -4.789062 2.078125 -6.28125 L 2.078125 -8.84375 C 2.078125 -10.757812 2.710938 -12.253906 3.984375 -13.328125 C 5.253906 -14.398438 6.992188 -14.9375 9.203125 -14.9375 Z M 22 -14.9375 "/></g></g></g><g fill="#ffffff" fill-opacity="1"><g transform="translate(113.521685, 53.827258)"><g><path d="M 14.234375 -24.859375 C 15.054688 -24.859375 15.960938 -24.828125 16.953125 -24.765625 C 17.941406 -24.703125 18.945312 -24.570312 19.96875 -24.375 C 20.988281 -24.175781 21.910156 -23.894531 22.734375 -23.53125 L 22.046875 -19.78125 C 20.828125 -19.84375 19.613281 -19.890625 18.40625 -19.921875 C 17.207031 -19.953125 16.164062 -19.96875 15.28125 -19.96875 C 13.59375 -19.96875 12.265625 -19.742188 11.296875 -19.296875 C 10.328125 -18.859375 9.625 -18.070312 9.1875 -16.9375 C 8.757812 -15.800781 8.546875 -14.207031 8.546875 -12.15625 C 8.546875 -10.113281 8.757812 -8.523438 9.1875 -7.390625 C 9.625 -6.253906 10.328125 -5.453125 11.296875 -4.984375 C 12.265625 -4.523438 13.59375 -4.296875 15.28125 -4.296875 C 15.769531 -4.296875 16.414062 -4.3125 17.21875 -4.34375 C 18.03125 -4.382812 18.90625 -4.4375 19.84375 -4.5 C 20.789062 -4.5625 21.707031 -4.644531 22.59375 -4.75 L 23.1875 -0.890625 C 21.90625 -0.359375 20.472656 0.0195312 18.890625 0.25 C 17.304688 0.476562 15.738281 0.59375 14.1875 0.59375 C 11.289062 0.59375 8.96875 0.179688 7.21875 -0.640625 C 5.46875 -1.460938 4.207031 -2.804688 3.4375 -4.671875 C 2.664062 -6.535156 2.28125 -9.03125 2.28125 -12.15625 C 2.28125 -15.289062 2.671875 -17.785156 3.453125 -19.640625 C 4.242188 -21.503906 5.515625 -22.835938 7.265625 -23.640625 C 9.015625 -24.453125 11.335938 -24.859375 14.234375 -24.859375 Z M 14.234375 -24.859375 "/></g></g></g><g fill="#ffffff" fill-opacity="1"><g transform="translate(138.236538, 53.827258)"><g><path d="M 25.3125 -24.28125 L 18.390625 -15.625 C 18.128906 -15.226562 17.800781 -14.835938 17.40625 -14.453125 C 17.007812 -14.078125 16.660156 -13.789062 16.359375 -13.59375 L 16.359375 -13.5 C 16.660156 -13.300781 17.007812 -12.976562 17.40625 -12.53125 C 17.800781 -12.082031 18.128906 -11.628906 18.390625 -11.171875 L 26.109375 0 L 19.328125 0 L 10.484375 -13.75 L 18.546875 -24.28125 Z M 9.34375 -34.609375 L 9.390625 -19.828125 C 9.390625 -18.734375 9.332031 -17.691406 9.21875 -16.703125 C 9.101562 -15.722656 8.945312 -14.71875 8.75 -13.6875 C 8.914062 -12.738281 9.054688 -11.753906 9.171875 -10.734375 C 9.285156 -9.710938 9.34375 -8.753906 9.34375 -7.859375 L 9.34375 0 L 3.359375 0 L 3.359375 -34.609375 Z M 13.046875 -15.515625 L 13.046875 -11.671875 L 7.421875 -11.671875 L 7.421875 -15.515625 Z M 13.046875 -15.515625 "/></g></g></g><g fill="#ffffff" fill-opacity="1"><g transform="translate(164.829722, 53.827258)"><g><path d="M 9.484375 -24.28125 L 9.484375 0 L 3.5625 0 L 3.5625 -24.28125 Z M 7.859375 -34.796875 C 9.046875 -34.796875 9.640625 -34.207031 9.640625 -33.03125 L 9.640625 -30.25 C 9.640625 -29.0625 9.046875 -28.46875 7.859375 -28.46875 L 5.1875 -28.46875 C 4 -28.46875 3.40625 -29.0625 3.40625 -30.25 L 3.40625 -33.03125 C 3.40625 -34.207031 4 -34.796875 5.1875 -34.796875 Z M 7.859375 -34.796875 "/></g></g></g><g fill="#ffffff" fill-opacity="1"><g transform="translate(177.879166, 53.827258)"><g><path d="M 14.34375 -24.859375 C 17.300781 -24.859375 19.660156 -24.445312 21.421875 -23.625 C 23.191406 -22.800781 24.460938 -21.453125 25.234375 -19.578125 C 26.015625 -17.703125 26.40625 -15.210938 26.40625 -12.109375 C 26.40625 -9.015625 26.015625 -6.535156 25.234375 -4.671875 C 24.460938 -2.804688 23.191406 -1.453125 21.421875 -0.609375 C 19.660156 0.222656 17.300781 0.640625 14.34375 0.640625 C 11.4375 0.640625 9.101562 0.222656 7.34375 -0.609375 C 5.582031 -1.453125 4.304688 -2.804688 3.515625 -4.671875 C 2.722656 -6.535156 2.328125 -9.015625 2.328125 -12.109375 C 2.328125 -15.210938 2.722656 -17.703125 3.515625 -19.578125 C 4.304688 -21.453125 5.582031 -22.800781 7.34375 -23.625 C 9.101562 -24.445312 11.4375 -24.859375 14.34375 -24.859375 Z M 14.34375 -20.3125 C 12.882812 -20.3125 11.734375 -20.070312 10.890625 -19.59375 C 10.054688 -19.125 9.457031 -18.296875 9.09375 -17.109375 C 8.726562 -15.921875 8.546875 -14.253906 8.546875 -12.109375 C 8.546875 -9.972656 8.726562 -8.3125 9.09375 -7.125 C 9.457031 -5.9375 10.054688 -5.109375 10.890625 -4.640625 C 11.734375 -4.179688 12.882812 -3.953125 14.34375 -3.953125 C 15.820312 -3.953125 16.988281 -4.179688 17.84375 -4.640625 C 18.695312 -5.109375 19.296875 -5.9375 19.640625 -7.125 C 19.992188 -8.3125 20.171875 -9.972656 20.171875 -12.109375 C 20.171875 -14.253906 19.992188 -15.921875 19.640625 -17.109375 C 19.296875 -18.296875 18.695312 -19.125 17.84375 -19.59375 C 16.988281 -20.070312 15.820312 -20.3125 14.34375 -20.3125 Z M 14.34375 -20.3125 "/></g></g></g><g fill="#ffffff" fill-opacity="1"><g transform="translate(-6.019387, 72.004692)"><g><path d="M 25.265625 -69.328125 L 25.265625 -16.265625 C 25.265625 -14.066406 25.757812 -12.472656 26.75 -11.484375 C 27.738281 -10.492188 29.441406 -10 31.859375 -10 L 39.328125 -10 L 40.765625 -0.65625 C 39.515625 -0.289062 38.007812 0.0351562 36.25 0.328125 C 34.5 0.617188 32.78125 0.816406 31.09375 0.921875 C 29.40625 1.035156 27.976562 1.09375 26.8125 1.09375 C 22.125 1.09375 18.476562 -0.164062 15.875 -2.6875 C 13.269531 -5.21875 11.96875 -8.863281 11.96875 -13.625 L 11.96875 -69.328125 Z M 41.3125 -53.953125 L 41.3125 -44.71875 L 2.421875 -44.71875 L 2.421875 -53.40625 L 12.96875 -53.953125 Z M 41.3125 -53.953125 "/></g></g></g><g clip-path="url(#10e0cc004f)"><g clip-path="url(#30b5ff98ac)"><g transform="matrix(1, 0, 0, 1, 0, 9)"><g clip-path="url(#6cb65a6f28)"><g clip-path="url(#4083eb78a0)"><g clip-path="url(#9d06b5c9db)"><path fill="#ffffff" d="M 18.695312 0.792969 L 18.695312 36.851562 L -3.707031 36.851562 L -3.707031 0.792969 Z M 18.695312 0.792969 " fill-opacity="1" fill-rule="nonzero"/></g></g></g></g></g></g><g clip-path="url(#1370bd5302)"><g clip-path="url(#bce5c71690)"><g transform="matrix(1, 0, 0, 1, 19, -0.000000000000001893)"><g clip-path="url(#727a061bb2)"><g clip-path="url(#2c26e5db1e)"><g clip-path="url(#f919f431f6)"><path fill="#ffffff" d="M 19.105469 -3.605469 L 19.105469 27.820312 L 0.175781 27.820312 L 0.175781 -3.605469 Z M 19.105469 -3.605469 " fill-opacity="1" fill-rule="nonzero"/></g></g></g></g></g></g></svg>