<svg xmlns="http://www.w3.org/2000/svg" xmlns:xlink="http://www.w3.org/1999/xlink" width="500" zoomAndPan="magnify" viewBox="0 0 375 74.999997" height="100" preserveAspectRatio="xMidYMid meet" version="1.0"><defs><g/><clipPath id="1a22affdf9"><rect x="0" width="41" y="0" height="75"/></clipPath><clipPath id="6a371b73a7"><path d="M 21.347656 11.574219 L 39.414062 11.574219 L 39.414062 40.914062 L 21.347656 40.914062 Z M 21.347656 11.574219 " clip-rule="nonzero"/></clipPath><clipPath id="73b9a8ff2a"><path d="M 0.347656 0.574219 L 18.414062 0.574219 L 18.414062 29.914062 L 0.347656 29.914062 Z M 0.347656 0.574219 " clip-rule="nonzero"/></clipPath><clipPath id="7e63d705b6"><rect x="0" width="19" y="0" height="30"/></clipPath><clipPath id="9ea2f87755"><path d="M 28.105469 11.574219 L 46.0625 11.574219 L 46.0625 37.246094 L 28.105469 37.246094 Z M 28.105469 11.574219 " clip-rule="nonzero"/></clipPath><clipPath id="5ed65f1e4e"><path d="M 46.0625 24.394531 L 28.105469 37.210938 L 28.105469 11.574219 Z M 46.0625 24.394531 " clip-rule="nonzero"/></clipPath><clipPath id="44fc84e7a6"><path d="M 0.105469 0.574219 L 18.0625 0.574219 L 18.0625 26.246094 L 0.105469 26.246094 Z M 0.105469 0.574219 " clip-rule="nonzero"/></clipPath><clipPath id="a24d7b12cc"><path d="M 18.0625 13.394531 L 0.105469 26.210938 L 0.105469 0.574219 Z M 18.0625 13.394531 " clip-rule="nonzero"/></clipPath><clipPath id="2d41eb47b8"><rect x="0" width="19" y="0" height="27"/></clipPath><clipPath id="6a4c46ad24"><rect x="0" width="239" y="0" height="74"/></clipPath></defs><g transform="matrix(1, 0, 0, 1, 0, -0.000000000000001893)"><g clip-path="url(#1a22affdf9)"><g fill="#1113d4" fill-opacity="1"><g transform="translate(-1.714225, 72.592615)"><g><path d="M 23.078125 -69.34375 L 23.078125 -15.28125 C 23.078125 -12.78125 23.609375 -11 24.671875 -9.9375 C 25.734375 -8.882812 27.546875 -8.359375 30.109375 -8.359375 L 38.015625 -8.359375 L 39.234375 -0.546875 C 37.984375 -0.179688 36.570312 0.109375 35 0.328125 C 33.425781 0.546875 31.847656 0.707031 30.265625 0.8125 C 28.691406 0.925781 27.429688 0.984375 26.484375 0.984375 C 21.941406 0.984375 18.460938 -0.257812 16.046875 -2.75 C 13.628906 -5.238281 12.421875 -8.828125 12.421875 -13.515625 L 12.421875 -69.34375 Z M 39.78125 -53.625 L 39.78125 -45.71875 L 2.75 -45.71875 L 2.75 -53.078125 L 13.296875 -53.625 Z M 39.78125 -53.625 "/></g></g></g></g></g><g clip-path="url(#6a371b73a7)"><g transform="matrix(1, 0, 0, 1, 21, 11)"><g clip-path="url(#7e63d705b6)"><g clip-path="url(#73b9a8ff2a)"><path fill="#ffffff" d="M 0.347656 0.574219 L 18.414062 0.574219 L 18.414062 29.929688 L 0.347656 29.929688 Z M 0.347656 0.574219 " fill-opacity="1" fill-rule="nonzero"/></g></g></g></g><g clip-path="url(#9ea2f87755)"><g clip-path="url(#5ed65f1e4e)"><g transform="matrix(1, 0, 0, 1, 28, 11)"><g clip-path="url(#2d41eb47b8)"><g clip-path="url(#44fc84e7a6)"><g clip-path="url(#a24d7b12cc)"><path fill="#1113d4" d="M 18.0625 0.574219 L 18.0625 26.175781 L 0.105469 26.175781 L 0.105469 0.574219 Z M 18.0625 0.574219 " fill-opacity="1" fill-rule="nonzero"/></g></g></g></g></g></g><g transform="matrix(1, 0, 0, 1, 68, -0.000000000000001893)"><g clip-path="url(#6a4c46ad24)"><g fill="#1113d4" fill-opacity="1"><g transform="translate(1.402311, 57.718347)"><g><path d="M 15.609375 -46.921875 L 15.609375 -10.34375 C 15.609375 -8.65625 15.96875 -7.453125 16.6875 -6.734375 C 17.40625 -6.015625 18.632812 -5.65625 20.375 -5.65625 L 25.734375 -5.65625 L 26.546875 -0.375 C 25.703125 -0.125 24.742188 0.0703125 23.671875 0.21875 C 22.609375 0.375 21.546875 0.488281 20.484375 0.5625 C 19.421875 0.632812 18.566406 0.671875 17.921875 0.671875 C 14.847656 0.671875 12.492188 -0.171875 10.859375 -1.859375 C 9.222656 -3.546875 8.40625 -5.972656 8.40625 -9.140625 L 8.40625 -46.921875 Z M 26.921875 -36.28125 L 26.921875 -30.9375 L 1.859375 -30.9375 L 1.859375 -35.921875 L 9 -36.28125 Z M 26.921875 -36.28125 "/></g></g></g><g fill="#1113d4" fill-opacity="1"><g transform="translate(30.098075, 57.718347)"><g><path d="M 11.15625 -36.28125 L 12.046875 -29.296875 L 12.71875 -28.25 L 12.71875 0 L 5.578125 0 L 5.578125 -36.28125 Z M 28.921875 -37.1875 L 28.1875 -30.484375 L 25.875 -30.484375 C 23.84375 -30.484375 21.769531 -30.085938 19.65625 -29.296875 C 17.550781 -28.503906 14.988281 -27.363281 11.96875 -25.875 L 11.453125 -30.265625 C 14.078125 -32.441406 16.738281 -34.140625 19.4375 -35.359375 C 22.144531 -36.578125 24.765625 -37.1875 27.296875 -37.1875 Z M 28.921875 -37.1875 "/></g></g></g><g fill="#1113d4" fill-opacity="1"><g transform="translate(60.206315, 57.718347)"><g><path d="M 23.046875 -37.1875 C 25.828125 -37.1875 28.171875 -36.820312 30.078125 -36.09375 C 31.984375 -35.375 33.421875 -34.144531 34.390625 -32.40625 C 35.359375 -30.675781 35.84375 -28.300781 35.84375 -25.28125 L 35.84375 0 L 30.1875 0 L 29.078125 -7.875 L 28.625 -8.78125 L 28.625 -25.28125 C 28.625 -27.414062 28.128906 -28.953125 27.140625 -29.890625 C 26.148438 -30.835938 24.265625 -31.3125 21.484375 -31.3125 C 19.609375 -31.3125 17.242188 -31.207031 14.390625 -31 C 11.535156 -30.800781 8.722656 -30.601562 5.953125 -30.40625 L 5.28125 -35.546875 C 6.96875 -35.835938 8.835938 -36.109375 10.890625 -36.359375 C 12.953125 -36.609375 15.046875 -36.804688 17.171875 -36.953125 C 19.304688 -37.109375 21.265625 -37.1875 23.046875 -37.1875 Z M 32.5625 -22.375 L 32.5 -17.328125 L 15.390625 -17.25 C 13.703125 -17.195312 12.523438 -16.757812 11.859375 -15.9375 C 11.191406 -15.125 10.859375 -14 10.859375 -12.5625 L 10.859375 -10.34375 C 10.859375 -8.550781 11.289062 -7.242188 12.15625 -6.421875 C 13.019531 -5.609375 14.394531 -5.203125 16.28125 -5.203125 C 17.664062 -5.203125 19.210938 -5.460938 20.921875 -5.984375 C 22.640625 -6.503906 24.363281 -7.296875 26.09375 -8.359375 C 27.832031 -9.429688 29.394531 -10.785156 30.78125 -12.421875 L 30.78125 -7.734375 C 30.289062 -7.035156 29.546875 -6.203125 28.546875 -5.234375 C 27.554688 -4.273438 26.351562 -3.347656 24.9375 -2.453125 C 23.53125 -1.554688 21.972656 -0.8125 20.265625 -0.21875 C 18.554688 0.375 16.6875 0.671875 14.65625 0.671875 C 12.46875 0.671875 10.539062 0.285156 8.875 -0.484375 C 7.21875 -1.253906 5.914062 -2.394531 4.96875 -3.90625 C 4.03125 -5.414062 3.5625 -7.257812 3.5625 -9.4375 L 3.5625 -13.390625 C 3.5625 -16.210938 4.46875 -18.414062 6.28125 -20 C 8.09375 -21.582031 10.609375 -22.375 13.828125 -22.375 Z M 32.5625 -22.375 "/></g></g></g><g fill="#1113d4" fill-opacity="1"><g transform="translate(101.317083, 57.718347)"><g><path d="M 21.34375 -37.1875 C 22.476562 -37.1875 23.726562 -37.132812 25.09375 -37.03125 C 26.457031 -36.925781 27.867188 -36.75 29.328125 -36.5 C 30.796875 -36.257812 32.148438 -35.890625 33.390625 -35.390625 L 32.5 -30.78125 C 30.757812 -30.9375 28.984375 -31.050781 27.171875 -31.125 C 25.367188 -31.195312 23.820312 -31.234375 22.53125 -31.234375 C 19.75 -31.234375 17.550781 -30.847656 15.9375 -30.078125 C 14.332031 -29.304688 13.179688 -27.976562 12.484375 -26.09375 C 11.796875 -24.21875 11.453125 -21.59375 11.453125 -18.21875 C 11.453125 -14.84375 11.796875 -12.1875 12.484375 -10.25 C 13.179688 -8.320312 14.332031 -6.984375 15.9375 -6.234375 C 17.550781 -5.492188 19.75 -5.125 22.53125 -5.125 C 23.269531 -5.125 24.234375 -5.148438 25.421875 -5.203125 C 26.617188 -5.253906 27.910156 -5.328125 29.296875 -5.421875 C 30.679688 -5.523438 32.019531 -5.675781 33.3125 -5.875 L 33.984375 -1.109375 C 32.148438 -0.421875 30.113281 0.0820312 27.875 0.40625 C 25.644531 0.726562 23.441406 0.890625 21.265625 0.890625 C 17.003906 0.890625 13.597656 0.269531 11.046875 -0.96875 C 8.492188 -2.207031 6.644531 -4.210938 5.5 -6.984375 C 4.363281 -9.765625 3.796875 -13.507812 3.796875 -18.21875 C 3.796875 -22.875 4.375 -26.585938 5.53125 -29.359375 C 6.695312 -32.140625 8.554688 -34.140625 11.109375 -35.359375 C 13.671875 -36.578125 17.082031 -37.1875 21.34375 -37.1875 Z M 21.34375 -37.1875 "/></g></g></g><g fill="#1113d4" fill-opacity="1"><g transform="translate(137.967367, 57.718347)"><g><path d="M 36.28125 -36.28125 L 25.203125 -23.125 C 24.859375 -22.625 24.410156 -22.113281 23.859375 -21.59375 C 23.316406 -21.082031 22.875 -20.703125 22.53125 -20.453125 L 22.53125 -20.296875 C 22.875 -20.046875 23.316406 -19.609375 23.859375 -18.984375 C 24.410156 -18.367188 24.859375 -17.765625 25.203125 -17.171875 L 37.484375 0 L 29.15625 0 L 15.171875 -20.75 L 27.953125 -36.28125 Z M 12.71875 -52.046875 L 12.796875 -29.21875 C 12.796875 -27.632812 12.734375 -26.160156 12.609375 -24.796875 C 12.484375 -23.429688 12.269531 -22.003906 11.96875 -20.515625 C 12.269531 -19.128906 12.46875 -17.71875 12.5625 -16.28125 C 12.664062 -14.84375 12.71875 -13.476562 12.71875 -12.1875 L 12.71875 0 L 5.578125 0 L 5.578125 -52.046875 Z M 18.734375 -22.984375 L 18.734375 -17.921875 L 10.265625 -17.921875 L 10.265625 -22.984375 Z M 18.734375 -22.984375 "/></g></g></g><g fill="#1113d4" fill-opacity="1"><g transform="translate(176.476188, 57.718347)"><g><path d="M 12.9375 -36.28125 L 12.9375 0 L 5.875 0 L 5.875 -36.28125 Z M 11.078125 -51.828125 C 12.515625 -51.828125 13.234375 -51.109375 13.234375 -49.671875 L 13.234375 -45.4375 C 13.234375 -44 12.515625 -43.28125 11.078125 -43.28125 L 7.734375 -43.28125 C 6.296875 -43.28125 5.578125 -44 5.578125 -45.4375 L 5.578125 -49.671875 C 5.578125 -51.109375 6.296875 -51.828125 7.734375 -51.828125 Z M 11.078125 -51.828125 "/></g></g></g><g fill="#1113d4" fill-opacity="1"><g transform="translate(195.284553, 57.718347)"><g><path d="M 21.265625 -37.1875 C 25.523438 -37.1875 28.929688 -36.566406 31.484375 -35.328125 C 34.046875 -34.085938 35.882812 -32.066406 37 -29.265625 C 38.113281 -26.460938 38.671875 -22.753906 38.671875 -18.140625 C 38.671875 -13.484375 38.113281 -9.753906 37 -6.953125 C 35.882812 -4.148438 34.046875 -2.128906 31.484375 -0.890625 C 28.929688 0.347656 25.523438 0.96875 21.265625 0.96875 C 17.054688 0.96875 13.671875 0.347656 11.109375 -0.890625 C 8.554688 -2.128906 6.707031 -4.148438 5.5625 -6.953125 C 4.425781 -9.753906 3.859375 -13.484375 3.859375 -18.140625 C 3.859375 -22.753906 4.425781 -26.460938 5.5625 -29.265625 C 6.707031 -32.066406 8.554688 -34.085938 11.109375 -35.328125 C 13.671875 -36.566406 17.054688 -37.1875 21.265625 -37.1875 Z M 21.265625 -31.375 C 18.785156 -31.375 16.828125 -30.976562 15.390625 -30.1875 C 13.953125 -29.394531 12.9375 -28.046875 12.34375 -26.140625 C 11.75 -24.234375 11.453125 -21.566406 11.453125 -18.140625 C 11.453125 -14.722656 11.75 -12.046875 12.34375 -10.109375 C 12.9375 -8.179688 13.953125 -6.832031 15.390625 -6.0625 C 16.828125 -5.289062 18.785156 -4.90625 21.265625 -4.90625 C 23.742188 -4.90625 25.710938 -5.289062 27.171875 -6.0625 C 28.640625 -6.832031 29.671875 -8.179688 30.265625 -10.109375 C 30.859375 -12.046875 31.15625 -14.722656 31.15625 -18.140625 C 31.15625 -21.566406 30.859375 -24.234375 30.265625 -26.140625 C 29.671875 -28.046875 28.640625 -29.394531 27.171875 -30.1875 C 25.710938 -30.976562 23.742188 -31.375 21.265625 -31.375 Z M 21.265625 -31.375 "/></g></g></g></g></g></svg>