<svg xmlns="http://www.w3.org/2000/svg" xmlns:xlink="http://www.w3.org/1999/xlink" width="500" zoomAndPan="magnify" viewBox="0 0 375 74.999997" height="100" preserveAspectRatio="xMidYMid meet" version="1.0"><defs><g/><clipPath id="31cb02d421"><path d="M 10.367188 3.550781 L 77.515625 3.550781 L 77.515625 70.699219 L 10.367188 70.699219 Z M 10.367188 3.550781 " clip-rule="nonzero"/></clipPath><clipPath id="08728cf1f5"><path d="M 43.941406 3.550781 C 25.398438 3.550781 10.367188 18.582031 10.367188 37.125 C 10.367188 55.667969 25.398438 70.699219 43.941406 70.699219 C 62.484375 70.699219 77.515625 55.667969 77.515625 37.125 C 77.515625 18.582031 62.484375 3.550781 43.941406 3.550781 Z M 43.941406 3.550781 " clip-rule="nonzero"/></clipPath><clipPath id="511f3bc454"><path d="M 18.898438 22.8125 L 43.9375 22.8125 L 43.9375 51.472656 L 18.898438 51.472656 Z M 18.898438 22.8125 " clip-rule="nonzero"/></clipPath><clipPath id="d39bd95539"><path d="M 43.9375 37.121094 L 18.898438 51.433594 L 18.898438 22.8125 Z M 43.9375 37.121094 " clip-rule="nonzero"/></clipPath><clipPath id="cd6f01b29b"><path d="M 0.898438 0.8125 L 25.9375 0.8125 L 25.9375 29.472656 L 0.898438 29.472656 Z M 0.898438 0.8125 " clip-rule="nonzero"/></clipPath><clipPath id="e2e1d6631a"><path d="M 25.9375 15.121094 L 0.898438 29.433594 L 0.898438 0.8125 Z M 25.9375 15.121094 " clip-rule="nonzero"/></clipPath><clipPath id="a736b1a07b"><rect x="0" width="26" y="0" height="30"/></clipPath><clipPath id="bfc74540b4"><path d="M 0 29.800781 L 29.300781 29.800781 L 29.300781 44.453125 L 0 44.453125 Z M 0 29.800781 " clip-rule="nonzero"/></clipPath><clipPath id="cc40f7047a"><path d="M 0 0.800781 L 29.300781 0.800781 L 29.300781 15.453125 L 0 15.453125 Z M 0 0.800781 " clip-rule="nonzero"/></clipPath><clipPath id="a7cec5fd72"><rect x="0" width="30" y="0" height="16"/></clipPath><clipPath id="3163eba4ad"><rect x="0" width="283" y="0" height="75"/></clipPath></defs><g clip-path="url(#31cb02d421)"><g clip-path="url(#08728cf1f5)"><path stroke-linecap="butt" transform="matrix(0.75, 0, 0, 0.75, 10.365925, 3.551295)" fill="none" stroke-linejoin="miter" d="M 44.767312 -0.00068552 C 20.043352 -0.00068552 0.00168348 20.040983 0.00168348 44.764943 C 0.00168348 69.488903 20.043352 89.530572 44.767312 89.530572 C 69.491272 89.530572 89.532941 69.488903 89.532941 44.764943 C 89.532941 20.040983 69.491272 -0.00068552 44.767312 -0.00068552 Z M 44.767312 -0.00068552 " stroke="#1113d4" stroke-width="36" stroke-opacity="1" stroke-miterlimit="4"/></g></g><g clip-path="url(#511f3bc454)"><g clip-path="url(#d39bd95539)"><g transform="matrix(1, 0, 0, 1, 18, 22)"><g clip-path="url(#a736b1a07b)"><g clip-path="url(#cd6f01b29b)"><g clip-path="url(#e2e1d6631a)"><path fill="#1113d4" d="M 25.9375 0.8125 L 25.9375 29.472656 L 0.898438 29.472656 L 0.898438 0.8125 Z M 25.9375 0.8125 " fill-opacity="1" fill-rule="nonzero"/></g></g></g></g></g></g><g clip-path="url(#bfc74540b4)"><g transform="matrix(1, 0, 0, 1, 0, 29)"><g clip-path="url(#a7cec5fd72)"><g clip-path="url(#cc40f7047a)"><path fill="#1113d4" d="M 0 0.800781 L 29.300781 0.800781 L 29.300781 15.453125 L 0 15.453125 Z M 0 0.800781 " fill-opacity="1" fill-rule="nonzero"/></g></g></g></g><g transform="matrix(1, 0, 0, 1, 92, -0.000000000000001893)"><g clip-path="url(#3163eba4ad)"><g fill="#1113d4" fill-opacity="1"><g transform="translate(1.3435, 65.208931)"><g><path d="M 18.703125 -56.203125 L 18.703125 -12.375 C 18.703125 -10.351562 19.128906 -8.910156 19.984375 -8.046875 C 20.847656 -7.191406 22.320312 -6.765625 24.40625 -6.765625 L 30.8125 -6.765625 L 31.796875 -0.4375 C 30.785156 -0.144531 29.640625 0.0859375 28.359375 0.265625 C 27.085938 0.441406 25.8125 0.570312 24.53125 0.65625 C 23.257812 0.75 22.238281 0.796875 21.46875 0.796875 C 17.78125 0.796875 14.957031 -0.207031 13 -2.21875 C 11.039062 -4.238281 10.0625 -7.148438 10.0625 -10.953125 L 10.0625 -56.203125 Z M 32.234375 -43.46875 L 32.234375 -37.046875 L 2.21875 -37.046875 L 2.21875 -43.015625 L 10.78125 -43.46875 Z M 32.234375 -43.46875 "/></g></g></g><g fill="#1113d4" fill-opacity="1"><g transform="translate(35.717779, 65.208931)"><g><path d="M 13.359375 -43.46875 L 14.421875 -35.09375 L 15.234375 -33.84375 L 15.234375 0 L 6.671875 0 L 6.671875 -43.46875 Z M 34.640625 -44.53125 L 33.75 -36.515625 L 31 -36.515625 C 28.5625 -36.515625 26.078125 -36.039062 23.546875 -35.09375 C 21.023438 -34.144531 17.957031 -32.78125 14.34375 -31 L 13.71875 -36.25 C 16.863281 -38.863281 20.050781 -40.894531 23.28125 -42.34375 C 26.519531 -43.800781 29.65625 -44.53125 32.6875 -44.53125 Z M 34.640625 -44.53125 "/></g></g></g><g fill="#1113d4" fill-opacity="1"><g transform="translate(71.784044, 65.208931)"><g><path d="M 27.609375 -44.53125 C 30.929688 -44.53125 33.734375 -44.097656 36.015625 -43.234375 C 38.304688 -42.378906 40.03125 -40.910156 41.1875 -38.828125 C 42.34375 -36.753906 42.921875 -33.90625 42.921875 -30.28125 L 42.921875 0 L 36.15625 0 L 34.828125 -9.4375 L 34.28125 -10.515625 L 34.28125 -30.28125 C 34.28125 -32.832031 33.6875 -34.671875 32.5 -35.796875 C 31.3125 -36.929688 29.054688 -37.5 25.734375 -37.5 C 23.484375 -37.5 20.648438 -37.378906 17.234375 -37.140625 C 13.816406 -36.898438 10.445312 -36.660156 7.125 -36.421875 L 6.328125 -42.578125 C 8.335938 -42.929688 10.578125 -43.253906 13.046875 -43.546875 C 15.515625 -43.847656 18.023438 -44.085938 20.578125 -44.265625 C 23.128906 -44.441406 25.472656 -44.53125 27.609375 -44.53125 Z M 39.015625 -26.8125 L 38.921875 -20.75 L 18.4375 -20.65625 C 16.414062 -20.601562 15.003906 -20.085938 14.203125 -19.109375 C 13.398438 -18.128906 13 -16.773438 13 -15.046875 L 13 -12.375 C 13 -10.238281 13.519531 -8.679688 14.5625 -7.703125 C 15.601562 -6.722656 17.25 -6.234375 19.5 -6.234375 C 21.164062 -6.234375 23.019531 -6.546875 25.0625 -7.171875 C 27.113281 -7.796875 29.175781 -8.742188 31.25 -10.015625 C 33.332031 -11.296875 35.207031 -12.914062 36.875 -14.875 L 36.875 -9.265625 C 36.28125 -8.429688 35.390625 -7.4375 34.203125 -6.28125 C 33.015625 -5.125 31.570312 -4.007812 29.875 -2.9375 C 28.1875 -1.863281 26.316406 -0.972656 24.265625 -0.265625 C 22.222656 0.441406 19.984375 0.796875 17.546875 0.796875 C 14.929688 0.796875 12.628906 0.335938 10.640625 -0.578125 C 8.648438 -1.492188 7.09375 -2.859375 5.96875 -4.671875 C 4.84375 -6.484375 4.28125 -8.695312 4.28125 -11.3125 L 4.28125 -16.03125 C 4.28125 -19.414062 5.363281 -22.054688 7.53125 -23.953125 C 9.695312 -25.859375 12.707031 -26.8125 16.5625 -26.8125 Z M 39.015625 -26.8125 "/></g></g></g><g fill="#1113d4" fill-opacity="1"><g transform="translate(121.030092, 65.208931)"><g><path d="M 25.5625 -44.53125 C 26.925781 -44.53125 28.421875 -44.46875 30.046875 -44.34375 C 31.679688 -44.226562 33.375 -44.019531 35.125 -43.71875 C 36.882812 -43.425781 38.503906 -42.984375 39.984375 -42.390625 L 38.921875 -36.875 C 36.835938 -37.050781 34.710938 -37.179688 32.546875 -37.265625 C 30.378906 -37.359375 28.523438 -37.40625 26.984375 -37.40625 C 23.660156 -37.40625 21.03125 -36.941406 19.09375 -36.015625 C 17.164062 -35.097656 15.785156 -33.507812 14.953125 -31.25 C 14.128906 -29 13.71875 -25.851562 13.71875 -21.8125 C 13.71875 -17.78125 14.128906 -14.601562 14.953125 -12.28125 C 15.785156 -9.96875 17.164062 -8.363281 19.09375 -7.46875 C 21.03125 -6.582031 23.660156 -6.140625 26.984375 -6.140625 C 27.878906 -6.140625 29.035156 -6.171875 30.453125 -6.234375 C 31.878906 -6.296875 33.421875 -6.382812 35.078125 -6.5 C 36.742188 -6.613281 38.351562 -6.789062 39.90625 -7.03125 L 40.703125 -1.328125 C 38.503906 -0.503906 36.066406 0.0976562 33.390625 0.484375 C 30.722656 0.867188 28.082031 1.0625 25.46875 1.0625 C 20.363281 1.0625 16.28125 0.320312 13.21875 -1.15625 C 10.164062 -2.644531 7.957031 -5.050781 6.59375 -8.375 C 5.226562 -11.695312 4.546875 -16.175781 4.546875 -21.8125 C 4.546875 -27.394531 5.242188 -31.847656 6.640625 -35.171875 C 8.035156 -38.503906 10.257812 -40.894531 13.3125 -42.34375 C 16.375 -43.800781 20.457031 -44.53125 25.5625 -44.53125 Z M 25.5625 -44.53125 "/></g></g></g><g fill="#1113d4" fill-opacity="1"><g transform="translate(164.932985, 65.208931)"><g><path d="M 43.46875 -43.46875 L 30.1875 -27.703125 C 29.769531 -27.109375 29.234375 -26.5 28.578125 -25.875 C 27.929688 -25.25 27.398438 -24.785156 26.984375 -24.484375 L 26.984375 -24.3125 C 27.398438 -24.019531 27.929688 -23.5 28.578125 -22.75 C 29.234375 -22.007812 29.769531 -21.285156 30.1875 -20.578125 L 44.890625 0 L 34.90625 0 L 18.171875 -24.84375 L 33.484375 -43.46875 Z M 15.234375 -62.34375 L 15.3125 -35 C 15.3125 -33.101562 15.238281 -31.335938 15.09375 -29.703125 C 14.945312 -28.066406 14.695312 -26.359375 14.34375 -24.578125 C 14.695312 -22.921875 14.929688 -21.226562 15.046875 -19.5 C 15.171875 -17.78125 15.234375 -16.148438 15.234375 -14.609375 L 15.234375 0 L 6.671875 0 L 6.671875 -62.34375 Z M 22.4375 -27.515625 L 22.4375 -21.46875 L 12.296875 -21.46875 L 12.296875 -27.515625 Z M 22.4375 -27.515625 "/></g></g></g><g fill="#1113d4" fill-opacity="1"><g transform="translate(211.062196, 65.208931)"><g><path d="M 15.5 -43.46875 L 15.5 0 L 7.03125 0 L 7.03125 -43.46875 Z M 13.265625 -62.078125 C 14.992188 -62.078125 15.859375 -61.21875 15.859375 -59.5 L 15.859375 -54.421875 C 15.859375 -52.691406 14.992188 -51.828125 13.265625 -51.828125 L 9.265625 -51.828125 C 7.535156 -51.828125 6.671875 -52.691406 6.671875 -54.421875 L 6.671875 -59.5 C 6.671875 -61.21875 7.535156 -62.078125 9.265625 -62.078125 Z M 13.265625 -62.078125 "/></g></g></g><g fill="#1113d4" fill-opacity="1"><g transform="translate(233.592489, 65.208931)"><g><path d="M 25.46875 -44.53125 C 30.570312 -44.53125 34.648438 -43.785156 37.703125 -42.296875 C 40.765625 -40.816406 42.960938 -38.398438 44.296875 -35.046875 C 45.640625 -31.691406 46.3125 -27.253906 46.3125 -21.734375 C 46.3125 -16.148438 45.640625 -11.679688 44.296875 -8.328125 C 42.960938 -4.972656 40.765625 -2.550781 37.703125 -1.0625 C 34.648438 0.414062 30.570312 1.15625 25.46875 1.15625 C 20.425781 1.15625 16.375 0.414062 13.3125 -1.0625 C 10.257812 -2.550781 8.046875 -4.972656 6.671875 -8.328125 C 5.304688 -11.679688 4.625 -16.148438 4.625 -21.734375 C 4.625 -27.253906 5.304688 -31.691406 6.671875 -35.046875 C 8.046875 -38.398438 10.257812 -40.816406 13.3125 -42.296875 C 16.375 -43.785156 20.425781 -44.53125 25.46875 -44.53125 Z M 25.46875 -37.578125 C 22.5 -37.578125 20.15625 -37.101562 18.4375 -36.15625 C 16.71875 -35.207031 15.5 -33.585938 14.78125 -31.296875 C 14.070312 -29.015625 13.71875 -25.828125 13.71875 -21.734375 C 13.71875 -17.628906 14.070312 -14.421875 14.78125 -12.109375 C 15.5 -9.796875 16.71875 -8.175781 18.4375 -7.25 C 20.15625 -6.332031 22.5 -5.875 25.46875 -5.875 C 28.4375 -5.875 30.796875 -6.332031 32.546875 -7.25 C 34.296875 -8.175781 35.523438 -9.796875 36.234375 -12.109375 C 36.953125 -14.421875 37.3125 -17.628906 37.3125 -21.734375 C 37.3125 -25.828125 36.953125 -29.015625 36.234375 -31.296875 C 35.523438 -33.585938 34.296875 -35.207031 32.546875 -36.15625 C 30.796875 -37.101562 28.4375 -37.578125 25.46875 -37.578125 Z M 25.46875 -37.578125 "/></g></g></g></g></g></svg>