<svg xmlns="http://www.w3.org/2000/svg" xmlns:xlink="http://www.w3.org/1999/xlink" width="500" zoomAndPan="magnify" viewBox="0 0 375 374.999991" height="500" preserveAspectRatio="xMidYMid meet" version="1.0"><defs><clipPath id="79611458d1"><path d="M 0 0 L 375 0 L 375 375 L 0 375 Z M 0 0 " clip-rule="nonzero"/></clipPath><clipPath id="a7c3604986"><rect x="0" width="375" y="0" height="375"/></clipPath><clipPath id="ac8d1320af"><path d="M 111.953125 90.867188 L 305.207031 90.867188 L 305.207031 284.121094 L 111.953125 284.121094 Z M 111.953125 90.867188 " clip-rule="nonzero"/></clipPath><clipPath id="eac157b298"><path d="M 208.578125 90.867188 C 155.214844 90.867188 111.953125 134.128906 111.953125 187.496094 C 111.953125 240.863281 155.214844 284.121094 208.578125 284.121094 C 261.945312 284.121094 305.207031 240.863281 305.207031 187.496094 C 305.207031 134.128906 261.945312 90.867188 208.578125 90.867188 Z M 208.578125 90.867188 " clip-rule="nonzero"/></clipPath><clipPath id="cec35e4ed3"><path d="M 136.511719 146.316406 L 208.578125 146.316406 L 208.578125 228.796875 L 136.511719 228.796875 Z M 136.511719 146.316406 " clip-rule="nonzero"/></clipPath><clipPath id="76648707a3"><path d="M 208.578125 187.496094 L 136.511719 228.675781 L 136.511719 146.316406 Z M 208.578125 187.496094 " clip-rule="nonzero"/></clipPath><clipPath id="c0b7f332f6"><path d="M 0.511719 0.316406 L 72.578125 0.316406 L 72.578125 82.71875 L 0.511719 82.71875 Z M 0.511719 0.316406 " clip-rule="nonzero"/></clipPath><clipPath id="cee2f109df"><path d="M 72.578125 41.496094 L 0.511719 82.675781 L 0.511719 0.316406 Z M 72.578125 41.496094 " clip-rule="nonzero"/></clipPath><clipPath id="ddede6cf5a"><rect x="0" width="73" y="0" height="83"/></clipPath><clipPath id="b805a13bcf"><path d="M 69.785156 169.03125 L 154.117188 169.03125 L 154.117188 205.96875 L 69.785156 205.96875 Z M 69.785156 169.03125 " clip-rule="nonzero"/></clipPath><clipPath id="673472254d"><path d="M 0.785156 0.03125 L 85.117188 0.03125 L 85.117188 36.96875 L 0.785156 36.96875 Z M 0.785156 0.03125 " clip-rule="nonzero"/></clipPath><clipPath id="6e2495c8fb"><rect x="0" width="86" y="0" height="37"/></clipPath></defs><g transform="matrix(1, 0, 0, 1, 0, 0)"><g clip-path="url(#a7c3604986)"><g clip-path="url(#79611458d1)"><rect x="-82.5" width="540" fill="#1113d4" height="539.999987" y="-82.499998" fill-opacity="1"/></g></g></g><g clip-path="url(#ac8d1320af)"><g clip-path="url(#eac157b298)"><path stroke-linecap="butt" transform="matrix(0.75, 0, 0, 0.75, 111.952022, 90.868866)" fill="none" stroke-linejoin="miter" d="M 128.834813 -0.00223804 C 57.683766 -0.00223804 0.00147074 57.680057 0.00147074 128.836312 C 0.00147074 199.992567 57.683766 257.669654 128.834813 257.669654 C 199.991067 257.669654 257.673363 199.992567 257.673363 128.836312 C 257.673363 57.680057 199.991067 -0.00223804 128.834813 -0.00223804 Z M 128.834813 -0.00223804 " stroke="#ffffff" stroke-width="82" stroke-opacity="1" stroke-miterlimit="4"/></g></g><g clip-path="url(#cec35e4ed3)"><g clip-path="url(#76648707a3)"><g transform="matrix(1, 0, 0, 1, 136, 146)"><g clip-path="url(#ddede6cf5a)"><g clip-path="url(#c0b7f332f6)"><g clip-path="url(#cee2f109df)"><path fill="#ffffff" d="M 72.578125 0.316406 L 72.578125 82.796875 L 0.511719 82.796875 L 0.511719 0.316406 Z M 72.578125 0.316406 " fill-opacity="1" fill-rule="nonzero"/></g></g></g></g></g></g><g clip-path="url(#b805a13bcf)"><g transform="matrix(1, 0, 0, 1, 69, 169)"><g clip-path="url(#6e2495c8fb)"><g clip-path="url(#673472254d)"><path fill="#ffffff" d="M 0.785156 0.03125 L 85.054688 0.03125 L 85.054688 36.96875 L 0.785156 36.96875 Z M 0.785156 0.03125 " fill-opacity="1" fill-rule="nonzero"/></g></g></g></g></svg>