<svg xmlns="http://www.w3.org/2000/svg" xmlns:xlink="http://www.w3.org/1999/xlink" width="500" zoomAndPan="magnify" viewBox="0 0 375 374.999991" height="500" preserveAspectRatio="xMidYMid meet" version="1.0"><defs><g/><clipPath id="775f728bed"><path d="M 0.320312 0 L 224 0 L 224 375 L 0.320312 375 Z M 0.320312 0 " clip-rule="nonzero"/></clipPath><clipPath id="1849c3faea"><rect x="0" width="224" y="0" height="375"/></clipPath><clipPath id="bc836cb1c1"><path d="M 124.394531 50.597656 L 216.554688 50.597656 L 216.554688 200.285156 L 124.394531 200.285156 Z M 124.394531 50.597656 " clip-rule="nonzero"/></clipPath><clipPath id="9ba62e5e76"><path d="M 0.394531 0.597656 L 92.554688 0.597656 L 92.554688 150.285156 L 0.394531 150.285156 Z M 0.394531 0.597656 " clip-rule="nonzero"/></clipPath><clipPath id="dbd1ddf04b"><rect x="0" width="93" y="0" height="151"/></clipPath><clipPath id="c8a59e7dde"><path d="M 166.5 50.609375 L 258.105469 50.609375 L 258.105469 181.574219 L 166.5 181.574219 Z M 166.5 50.609375 " clip-rule="nonzero"/></clipPath><clipPath id="fad21fbcca"><path d="M 258.105469 116.003906 L 166.5 181.394531 L 166.5 50.609375 Z M 258.105469 116.003906 " clip-rule="nonzero"/></clipPath><clipPath id="90e6160773"><path d="M 0.5 0.609375 L 92.105469 0.609375 L 92.105469 131.441406 L 0.5 131.441406 Z M 0.5 0.609375 " clip-rule="nonzero"/></clipPath><clipPath id="fa663f3eab"><path d="M 92.105469 66.003906 L 0.5 131.394531 L 0.5 0.609375 Z M 92.105469 66.003906 " clip-rule="nonzero"/></clipPath><clipPath id="631ca4932c"><rect x="0" width="93" y="0" height="132"/></clipPath><clipPath id="c57299e3b1"><rect x="0" width="259" y="0" height="375"/></clipPath></defs><g transform="matrix(1, 0, 0, 1, 64, 0)"><g clip-path="url(#c57299e3b1)"><g clip-path="url(#775f728bed)"><g><g clip-path="url(#1849c3faea)"><g fill="#1113d4" fill-opacity="1"><g transform="translate(6.735398, 361.892729)"><g><path d="M 117.71875 -353.71875 L 117.71875 -77.921875 C 117.71875 -65.210938 120.425781 -56.148438 125.84375 -50.734375 C 131.269531 -45.316406 140.519531 -42.609375 153.59375 -42.609375 L 193.953125 -42.609375 L 200.125 -2.796875 C 193.769531 -0.929688 186.570312 0.554688 178.53125 1.671875 C 170.5 2.796875 162.46875 3.640625 154.4375 4.203125 C 146.40625 4.765625 139.957031 5.046875 135.09375 5.046875 C 111.925781 5.046875 94.175781 -1.304688 81.84375 -14.015625 C 69.507812 -26.722656 63.34375 -45.035156 63.34375 -68.953125 L 63.34375 -353.71875 Z M 202.921875 -273.5625 L 202.921875 -233.203125 L 14.015625 -233.203125 L 14.015625 -270.765625 L 67.828125 -273.5625 Z M 202.921875 -273.5625 "/></g></g></g></g></g></g><g clip-path="url(#bc836cb1c1)"><g transform="matrix(1, 0, 0, 1, 124, 50)"><g clip-path="url(#dbd1ddf04b)"><g clip-path="url(#9ba62e5e76)"><path fill="#ffffff" d="M 0.394531 0.597656 L 92.554688 0.597656 L 92.554688 150.359375 L 0.394531 150.359375 Z M 0.394531 0.597656 " fill-opacity="1" fill-rule="nonzero"/></g></g></g></g><g clip-path="url(#c8a59e7dde)"><g clip-path="url(#fad21fbcca)"><g transform="matrix(1, 0, 0, 1, 166, 50)"><g clip-path="url(#631ca4932c)"><g clip-path="url(#90e6160773)"><g clip-path="url(#fa663f3eab)"><path fill="#1113d4" d="M 92.105469 0.609375 L 92.105469 131.214844 L 0.5 131.214844 L 0.5 0.609375 Z M 92.105469 0.609375 " fill-opacity="1" fill-rule="nonzero"/></g></g></g></g></g></g></g></g></svg>